<svg width="50" height="50" viewBox="0 0 50 50" fill="none" xmlns="http://www.w3.org/2000/svg">
<path d="M25 0C38.8091 0 50 11.1909 50 25C50 38.8091 38.8091 50 25 50C11.1909 50 0 38.8091 0 25C0 11.1909 11.1909 0 25 0Z" fill="#F7B72B"/>
<path opacity="0.13" d="M25.1113 0C30.6107 0 35.6956 1.77922 39.8303 4.79175C4.0438 3.25516 2.86102 36.1706 2.86102 36.4032C1.10203 32.9863 0.111328 29.1144 0.111328 25C0.111328 11.1909 11.3022 0 25.1113 0Z" fill="black"/>
<path d="M36.1193 19.4503C35.3206 14.9315 31.742 11.3427 27.2434 10.3419C26.7481 10.2307 26.7278 10.1903 25.9798 10.1296C25.2317 10.0689 24.7869 10.0791 24.2511 10.1094C23.7153 10.1397 23.594 10.1903 23.2705 10.2509C19.4391 10.9383 16.5984 13.0006 14.89 16.4883C13.6365 19.0358 13.3433 21.6844 14.3946 24.4038C15.1629 26.4054 16.1941 28.2655 17.3364 30.0548C19.2673 33.0875 21.4508 35.9282 23.7658 38.6779C24.1702 39.1632 24.5948 39.6383 25.0194 40.1438C25.1407 40.0123 25.2317 39.9214 25.3125 39.8203C27.2939 37.5457 29.1743 35.1801 30.9231 32.7135C32.5406 30.4288 34.0469 28.0835 35.1993 25.5158C36.0586 23.5748 36.4933 21.5934 36.1193 19.4503ZM24.9992 26.6278C21.6328 26.6278 18.8831 23.9792 18.7113 20.6533C18.7012 20.5421 18.7012 20.441 18.7012 20.3298C18.7012 20.2186 18.7012 20.1175 18.7113 20.0063C18.8831 16.6803 21.6328 14.0317 24.9992 14.0317C28.3655 14.0317 31.1152 16.6803 31.2871 20.0063C31.2972 20.1175 31.2972 20.2186 31.2972 20.3298C31.2972 20.441 31.2972 20.5421 31.2871 20.6533C31.1152 23.9893 28.3655 26.6278 24.9992 26.6278Z" fill="white"/>
</svg>
