<svg width="45" height="45" viewBox="0 0 45 45" fill="none" xmlns="http://www.w3.org/2000/svg">
<path d="M22.4995 19.5C25.3945 19.5 27.7495 17.1442 27.7495 14.25C27.7495 11.3558 25.3945 9 22.4995 9C19.6045 9 17.2495 11.3558 17.2495 14.25C17.2495 17.1442 19.6045 19.5 22.4995 19.5ZM22.4995 10.5C24.5673 10.5 26.2495 12.1823 26.2495 14.25C26.2495 16.3177 24.5673 18 22.4995 18C20.4318 18 18.7495 16.3177 18.7495 14.25C18.7495 12.1823 20.4318 10.5 22.4995 10.5Z" fill="#747474"/>
<path d="M22.3667 41.0677L33.8724 24.45C38.1879 18.6967 37.5639 9.24 32.5367 4.2135C29.8202 1.49625 26.2082 0 22.3667 0C18.5252 0 14.9132 1.49625 12.1967 4.21275C7.16942 9.23925 6.54541 18.696 10.8437 24.4268L22.3667 41.0677ZM13.2572 5.27325C15.6909 2.84025 18.9257 1.5 22.3667 1.5C25.8077 1.5 29.0424 2.84025 31.4762 5.27325C36.0137 9.81 36.5724 18.351 32.6559 23.5725L22.3667 38.4323L12.0609 23.55C8.16092 18.351 8.72042 9.81 13.2572 5.27325Z" fill="#747474"/>
<path d="M31.5873 32.2552C31.1748 32.205 30.8028 32.5005 30.7548 32.9122C30.7068 33.324 31.0008 33.6967 31.4118 33.7447C39.2988 34.6732 43.4995 37.1752 43.4995 38.625C43.4995 40.6605 35.5105 43.5 22.4995 43.5C9.48851 43.5 1.49951 40.6605 1.49951 38.625C1.49951 37.1752 5.70026 34.6732 13.5873 33.7447C13.9983 33.6967 14.2923 33.3232 14.2443 32.9122C14.1955 32.5005 13.8235 32.2035 13.4118 32.2552C5.51501 33.1852 -0.000488281 35.8042 -0.000488281 38.625C-0.000488281 41.793 7.72826 45 22.4995 45C37.2708 45 44.9995 41.793 44.9995 38.625C44.9995 35.8042 39.484 33.1852 31.5873 32.2552Z" fill="#747474"/>
</svg>
