<svg width="45" height="45" viewBox="0 0 45 45" fill="none" xmlns="http://www.w3.org/2000/svg">
<path d="M43.8187 34.7165L34.7105 28.6424C33.5547 27.8778 32.0053 28.1294 31.1508 29.2205L28.4977 32.6318C28.1567 33.0814 27.5369 33.2118 27.0436 32.9378L26.539 32.6595C24.8659 31.7476 22.7843 30.6123 18.5902 26.4167C14.396 22.2211 13.2585 20.1379 12.3465 18.4679L12.0698 17.9632C11.792 17.4701 11.92 16.8476 12.3697 16.5039L15.7787 13.8516C16.8694 12.997 17.1214 11.4481 16.3576 10.2919L10.2835 1.18372C9.50081 0.00633528 7.93043 -0.347108 6.71869 0.381309L2.90999 2.6692C1.71327 3.37275 0.835287 4.51217 0.460138 5.8487C-0.911367 10.8459 0.120402 19.4704 12.825 32.1766C22.9313 42.282 30.455 44.9997 35.6262 44.9997C36.8163 45.0048 38.0018 44.8499 39.1507 44.5393C40.4875 44.1646 41.6271 43.2865 42.3302 42.0894L44.6204 38.283C45.3498 37.071 44.9966 35.4997 43.8187 34.7165ZM43.3282 37.5135L41.0433 41.3223C40.5385 42.1863 39.7188 42.8215 38.7561 43.095C34.1428 44.3616 26.083 43.3125 13.8861 31.1155C1.68911 18.9186 0.640111 10.8595 1.90669 6.24547C2.18052 5.28163 2.81658 4.46094 3.68164 3.95529L7.49034 1.67039C8.01612 1.35403 8.69769 1.50737 9.03734 2.01829L12.3369 6.97204L15.1063 11.1257C15.4379 11.6272 15.3289 12.2994 14.8558 12.6705L11.4461 15.3228C10.4084 16.1162 10.1121 17.5519 10.751 18.6913L11.0217 19.1832C11.9801 20.941 13.1716 23.1276 17.5217 27.477C21.8719 31.8264 24.0578 33.018 25.8148 33.9763L26.3074 34.2477C27.4467 34.8865 28.8825 34.5903 29.6759 33.5526L32.3282 30.1429C32.6994 29.67 33.3713 29.5612 33.873 29.8925L42.9804 35.9665C43.4917 36.3059 43.645 36.9879 43.3282 37.5135Z" fill="#747474"/>
</svg>
