<svg width="79" height="62" viewBox="0 0 79 62" fill="none" xmlns="http://www.w3.org/2000/svg">
<path d="M64.4419 13.7722H72.1374C75.3059 13.7722 77.8439 16.231 77.8439 19.2083V55.5344C77.8439 58.5339 75.2852 61.0125 72.0935 61.0125H6.99682C3.80511 61.0125 1.24634 58.5339 1.24634 55.5344V19.2083C1.24634 16.231 3.78442 13.7722 6.95285 13.7722C8.08683 13.7722 9.0061 12.853 9.0061 11.719V10.1799C9.0061 8.74822 10.1667 7.5876 11.5984 7.5876H13.1735C14.6052 7.5876 15.7659 8.74822 15.7659 10.1799V12.245C15.7659 13.0885 16.4496 13.7722 17.2931 13.7722C17.9089 13.7722 18.4644 13.4024 18.702 12.8343L22.3271 4.16667C23.0272 2.49269 24.6641 1.40295 26.4786 1.40295H52.6117C54.4262 1.40295 56.0631 2.49269 56.7632 4.16666L59.3678 10.3944C60.2235 12.4403 62.2242 13.7722 64.4419 13.7722ZM12.386 9.06145C11.3956 9.06145 10.5927 9.86434 10.5927 10.8547V11.9789C10.5927 12.9694 11.3956 13.7722 12.386 13.7722C13.3764 13.7722 14.1793 12.9694 14.1793 11.9789V10.8547C14.1793 9.86434 13.3764 9.06145 12.386 9.06145ZM72.0935 59.5386C74.3684 59.5386 76.2574 57.7647 76.2574 55.5344V19.2083C76.2574 17.0028 74.3879 15.2461 72.1374 15.2461H62.6908C60.8763 15.2461 59.2394 14.1564 58.5393 12.4824L55.9347 6.25468C55.079 4.20871 53.0783 2.87681 50.8606 2.87681H28.2297C26.012 2.87681 24.0113 4.20871 23.1556 6.25468L20.551 12.4824C19.8509 14.1564 18.2139 15.2461 16.3995 15.2461H16.2659H8.5061H6.95285C4.70239 15.2461 2.83292 17.0028 2.83292 19.2083V55.5344C2.83292 57.7634 4.72179 59.5386 6.99682 59.5386H72.0935Z" fill="#CDCDCD" stroke="#CDCDCD"/>
<path d="M16.7659 34.2999C16.7659 22.3203 26.9641 12.5352 39.5452 12.5352C52.1262 12.5352 62.3244 22.3203 62.3244 34.2999C62.3244 46.2795 52.1262 56.0646 39.5452 56.0646C26.9641 56.0646 16.7659 46.2795 16.7659 34.2999ZM18.3525 34.2999C18.3525 45.509 27.8808 54.5907 39.5452 54.5907C51.2095 54.5907 60.7378 45.509 60.7378 34.2999C60.7378 23.0908 51.2095 14.009 39.5452 14.009C27.8808 14.009 18.3525 23.0908 18.3525 34.2999Z" fill="#CDCDCD" stroke="#CDCDCD"/>
<path d="M24.5256 34.3002C24.5256 26.4123 31.2423 19.957 39.5452 19.957C47.848 19.957 54.5647 26.4123 54.5647 34.3002C54.5647 42.188 47.848 48.6433 39.5452 48.6433C31.2423 48.6433 24.5256 42.188 24.5256 34.3002ZM26.1122 34.3002C26.1122 41.4175 32.159 47.1695 39.5452 47.1695C46.9313 47.1695 52.9781 41.4175 52.9781 34.3002C52.9781 27.1828 46.9313 21.4309 39.5452 21.4309C32.159 21.4309 26.1122 27.1828 26.1122 34.3002Z" fill="#CDCDCD" stroke="#CDCDCD"/>
<path d="M63.3245 23.1678C63.3245 20.736 65.3995 18.7201 67.9976 18.7201C70.5957 18.7201 72.6708 20.736 72.6708 23.1678C72.6708 25.5996 70.5957 27.6155 67.9976 27.6155C65.3995 27.6155 63.3245 25.5996 63.3245 23.1678ZM64.911 23.1678C64.911 24.829 66.3162 26.1417 67.9976 26.1417C69.679 26.1417 71.0842 24.829 71.0842 23.1678C71.0842 21.5066 69.679 20.194 67.9976 20.194C66.3162 20.194 64.911 21.5066 64.911 23.1678Z" fill="#CDCDCD" stroke="#CDCDCD"/>
</svg>
