<svg width="50" height="51" viewBox="0 0 50 51" fill="none" xmlns="http://www.w3.org/2000/svg">
<path d="M25 50.0704C38.8071 50.0704 50 38.8776 50 25.0704C50 11.2633 38.8071 0.0704346 25 0.0704346C11.1929 0.0704346 0 11.2633 0 25.0704C0 38.8776 11.1929 50.0704 25 50.0704Z" fill="#06AA9F"/>
<path opacity="0.13" d="M39.719 4.78401C3.93247 3.2499 2.75981 36.1122 2.7497 36.3444C0.9907 32.933 0 29.0674 0 24.9596C0 11.1728 11.1909 0 25 0C30.4994 0 35.5843 1.77634 39.719 4.78401Z" fill="black"/>
<path d="M33.987 38.494H15.3659C13.3137 38.494 11.6255 36.8185 11.6255 34.7596V16.1686C11.6255 14.1197 13.3036 12.4342 15.3659 12.4342H33.987C36.0392 12.4342 37.7274 14.1096 37.7274 16.1686V34.7596C37.7274 36.8084 36.0493 38.494 33.987 38.494Z" fill="white"/>
<path d="M24.7073 35.0727C30.028 35.0727 34.3413 30.7664 34.3413 25.4542C34.3413 20.1421 30.028 15.8358 24.7073 15.8358C19.3866 15.8358 15.0732 20.1421 15.0732 25.4542C15.0732 30.7664 19.3866 35.0727 24.7073 35.0727Z" fill="#06AA9F"/>
<path d="M24.7365 25.4627L24.29 25.72L28.1214 32.3453L28.5679 32.0879L24.7365 25.4627Z" fill="white"/>
<path d="M25.4509 26.1995C25.8615 25.7896 25.8615 25.125 25.4509 24.7151C25.0404 24.3052 24.3747 24.3052 23.9641 24.7151C23.5535 25.125 23.5535 25.7896 23.9641 26.1995C24.3747 26.6095 25.0404 26.6095 25.4509 26.1995Z" fill="white"/>
<path d="M24.5456 24.6469L20.7244 20.6905C20.6132 20.5593 20.4514 20.4785 20.2694 20.4785C19.9459 20.4785 19.6831 20.7409 19.6831 21.0538C19.6831 21.2254 19.7539 21.3768 19.8752 21.4777L23.7167 25.4442C23.7268 25.4543 23.7369 25.4644 23.747 25.4644C23.8481 25.5552 23.9896 25.6158 24.1413 25.6158C24.4647 25.6158 24.7175 25.3534 24.7175 25.0405C24.7074 24.8992 24.6467 24.7579 24.5456 24.6469Z" fill="white"/>
<path d="M30.8233 23.9809L25.3543 24.6773C25.1824 24.6874 25.0207 24.7681 24.9095 24.9094C24.7174 25.1617 24.7679 25.5251 25.0308 25.7168C25.1622 25.8178 25.334 25.848 25.4857 25.8178L30.9648 25.1214C30.9749 25.1214 30.9952 25.1113 31.0053 25.1113C31.1468 25.0911 31.2681 25.0103 31.3591 24.8892C31.5512 24.6369 31.5006 24.2735 31.2378 24.0818C31.1266 24.001 30.9749 23.9607 30.8233 23.9809Z" fill="white"/>
<path d="M24.7063 26.1202C25.0748 26.1202 25.3735 25.822 25.3735 25.4541C25.3735 25.0862 25.0748 24.788 24.7063 24.788C24.3378 24.788 24.0391 25.0862 24.0391 25.4541C24.0391 25.822 24.3378 26.1202 24.7063 26.1202Z" fill="#06AA9F"/>
</svg>
