<svg width="50" height="50" viewBox="0 0 50 50" fill="none" xmlns="http://www.w3.org/2000/svg">
<path d="M25 49.9999C38.8071 49.9999 50 38.8318 50 25.0553C50 11.2789 38.8071 0.11084 25 0.11084C11.1929 0.11084 0 11.2789 0 25.0553C0 38.8318 11.1929 49.9999 25 49.9999Z" fill="#FE8085"/>
<path opacity="0.13" d="M39.7499 4.78112C3.96338 3.24793 2.79071 36.0904 2.7806 36.3224C1.03172 32.9131 0.0410156 29.0498 0.0410156 24.9445C0.0410156 11.166 11.2319 0 25.041 0C30.5404 0 35.6253 1.77527 39.7499 4.78112Z" fill="black"/>
<path d="M37.1096 13.4454C37.0388 13.3748 36.968 13.2941 36.8872 13.2235C36.877 13.2134 36.8669 13.2034 36.8568 13.1933C33.6927 10.0563 29.4973 8.33145 25.0392 8.33145C20.7428 8.33145 16.6991 9.93524 13.5754 12.8503C13.4844 12.931 13.4035 13.0117 13.3125 13.1025C13.2721 13.1428 13.2216 13.1933 13.1811 13.2336C10.017 16.3908 8.26807 20.5969 8.26807 25.0553C8.26807 29.5237 10.0068 33.7198 13.1811 36.8769C16.3453 40.0341 20.5608 41.7791 25.0291 41.7791C29.5075 41.7791 33.7129 40.0341 36.877 36.8769C40.0412 33.7198 41.7901 29.5136 41.7901 25.0553C41.8002 20.6877 40.1322 16.5723 37.1096 13.4454ZM27.6575 41.2142C27.0509 41.3151 26.4343 41.3756 25.8075 41.4059C25.5548 41.416 25.2919 41.4261 25.0392 41.4261C24.7865 41.4261 24.5236 41.416 24.2709 41.4059C23.6441 41.3756 23.0275 41.3151 22.4209 41.2142C14.6571 39.9635 8.71287 33.2861 8.62189 25.2167C8.62189 25.1561 8.62189 25.0956 8.62189 25.0452C8.62189 24.9847 8.62189 24.9241 8.62189 24.8737C8.67243 20.3649 10.5527 16.2798 13.5653 13.3446C13.6461 13.2639 13.7371 13.1832 13.8281 13.0924C16.1633 10.9137 19.1253 9.41073 22.4209 8.87614C23.0275 8.77527 23.6441 8.71475 24.2709 8.68449C24.5236 8.6744 24.7865 8.66431 25.0392 8.66431C25.2919 8.66431 25.5548 8.6744 25.8075 8.68449C26.4343 8.71475 27.0509 8.77527 27.6575 8.87614C31.1148 9.43091 34.2183 11.065 36.594 13.4253C36.6749 13.506 36.7658 13.5967 36.8467 13.6774C39.6571 16.5824 41.3958 20.5263 41.4464 24.8535C41.4464 24.9141 41.4464 24.9746 41.4464 25.025C41.4464 25.0855 41.4464 25.1461 41.4464 25.1965C41.3554 33.2861 35.4011 39.9635 27.6575 41.2142Z" fill="white"/>
<path d="M25.029 42.5256C20.3484 42.5256 15.9509 40.71 12.6452 37.4015C9.33953 34.1032 7.50977 29.7053 7.50977 25.0352C7.50977 20.365 9.32942 15.9773 12.6452 12.6789C12.6958 12.6285 12.7362 12.5881 12.7868 12.5377C12.8777 12.4469 12.9687 12.3662 13.0597 12.2755C16.3048 9.23934 20.5607 7.56494 25.029 7.56494C29.6893 7.56494 34.0767 9.37047 37.3824 12.6487C37.3925 12.6587 37.4127 12.6789 37.4228 12.689C37.5037 12.7697 37.5745 12.8403 37.6553 12.921C40.8195 16.1891 42.5583 20.4961 42.5583 25.0453C42.5583 29.7154 40.7386 34.1032 37.4228 37.4116C34.1171 40.71 29.7095 42.5256 25.029 42.5256ZM25.029 9.43099C24.7762 9.43099 24.5336 9.44108 24.291 9.45116C23.6946 9.48142 23.1082 9.54194 22.532 9.63272C19.4588 10.127 16.6282 11.5189 14.3436 13.6573C14.2627 13.738 14.1818 13.8187 14.0908 13.8893C11.0985 16.8145 9.4204 20.7181 9.37996 24.8839C9.37996 24.9343 9.37996 24.9948 9.37996 25.0554C9.37996 25.1159 9.37996 25.1663 9.37996 25.2268C9.46084 32.8524 14.9906 39.2676 22.532 40.478C23.1082 40.5688 23.7047 40.6293 24.291 40.6596C24.7762 40.6797 25.2817 40.6797 25.7669 40.6596C26.3634 40.6293 26.9497 40.5688 27.5259 40.478C35.0674 39.2676 40.5971 32.8524 40.678 25.2268C40.678 25.1764 40.678 25.1159 40.678 25.0554C40.678 24.9948 40.678 24.9444 40.678 24.8839C40.6375 20.8895 39.0807 17.107 36.2906 14.2222C36.2097 14.1415 36.1289 14.0608 36.048 13.9801C33.7026 11.6602 30.7609 10.1572 27.5259 9.63272C26.9497 9.54194 26.3533 9.48142 25.7669 9.45116C25.5344 9.43099 25.2817 9.43099 25.029 9.43099Z" fill="white"/>
<path d="M37.3824 13.1733C37.3117 13.0926 37.2308 13.022 37.16 12.9413C37.1499 12.9313 37.1297 12.9111 37.1196 12.901L36.8467 12.6387L36.5737 12.901C36.4827 12.9918 36.4018 13.0725 36.321 13.1431C35.3909 14.0105 34.3598 14.767 33.2579 15.3924C33.1467 15.4529 33.0456 15.5135 32.9546 15.5639C31.4382 16.3809 29.8006 16.9458 28.1022 17.2383C28.0011 17.2585 27.8899 17.2786 27.7686 17.2887C26.9902 17.4098 26.1815 17.4703 25.3829 17.4703C24.3517 17.4703 23.3206 17.3694 22.3198 17.1778C22.1985 17.1576 22.0873 17.1273 21.9862 17.1072C20.3182 16.744 18.731 16.1288 17.2551 15.2512C17.154 15.1907 17.0529 15.1302 16.9518 15.0696C15.9207 14.4342 14.9603 13.6676 14.0909 12.8203C13.9999 12.7295 13.919 12.6488 13.8483 12.5681L13.5854 12.2857L13.3024 12.548C13.2215 12.6287 13.1305 12.7093 13.0395 12.8001L12.7666 13.0725L13.0294 13.3549C13.1002 13.4356 13.1811 13.5062 13.2518 13.5869C13.262 13.597 13.2721 13.6071 13.2822 13.6172C14.2223 14.5552 15.2737 15.3823 16.3958 16.0682C16.507 16.1388 16.6081 16.1994 16.7092 16.2599C18.2862 17.1879 19.9846 17.8435 21.7739 18.2167C21.9053 18.247 22.0266 18.2671 22.1277 18.2873C23.1892 18.4891 24.2809 18.5899 25.3727 18.5899C26.2219 18.5899 27.0711 18.5294 27.9101 18.4084C28.0517 18.3882 28.1629 18.368 28.264 18.3478C30.0836 18.0452 31.8224 17.4501 33.45 16.5827C33.5612 16.5221 33.6724 16.4616 33.7735 16.4112C34.9663 15.7354 36.0885 14.9183 37.0994 13.9702C37.1904 13.8895 37.2712 13.8088 37.3622 13.718L37.6352 13.4457L37.3824 13.1733Z" fill="white"/>
<path d="M37.3826 36.3728C37.2916 36.2821 37.2006 36.2014 37.1198 36.1207C36.1089 35.1725 34.9867 34.3454 33.7938 33.6797C33.6928 33.6192 33.5917 33.5687 33.4704 33.5082C31.8529 32.6408 30.104 32.0456 28.2843 31.743C28.1833 31.7229 28.0619 31.7027 27.9305 31.6825C27.1016 31.5615 26.2423 31.5009 25.3931 31.5009C24.3013 31.5009 23.2095 31.6018 22.1481 31.8035C22.0369 31.8237 21.9257 31.8439 21.7942 31.8742C20.0049 32.2575 18.2965 32.9131 16.7295 33.831C16.6285 33.8915 16.5173 33.952 16.4162 34.0226C15.294 34.7085 14.2528 35.5356 13.3025 36.4737C13.2924 36.4838 13.2823 36.4939 13.2621 36.5141C13.1913 36.5847 13.1105 36.6654 13.0397 36.7461L12.7769 37.0285L13.0498 37.3008C13.1408 37.3916 13.2318 37.4723 13.3126 37.553L13.5957 37.8152L13.8585 37.5328C13.9293 37.4622 14.0102 37.3815 14.1012 37.2807C14.9604 36.4233 15.9208 35.6668 16.9621 35.0313C17.0631 34.9708 17.1642 34.9103 17.2653 34.8497C18.7413 33.9823 20.3284 33.3569 21.9964 32.9938C22.1076 32.9736 22.2188 32.9434 22.33 32.9232C23.3308 32.7315 24.362 32.6307 25.3931 32.6307C26.1917 32.6307 27.0005 32.6912 27.7789 32.8122C27.9002 32.8324 28.0114 32.8425 28.1125 32.8627C29.8108 33.1552 31.4384 33.72 32.9649 34.5371C33.0559 34.5875 33.157 34.6379 33.2682 34.7085C34.3701 35.3339 35.4012 36.0904 36.3313 36.9579C36.4121 37.0386 36.493 37.1092 36.584 37.2L36.8569 37.4622L37.1299 37.2C37.14 37.1899 37.1602 37.1697 37.1703 37.1596C37.2411 37.089 37.322 37.0083 37.3927 36.9276L37.6556 36.6553L37.3826 36.3728Z" fill="white"/>
<path d="M31.388 13.052C29.7099 9.75368 27.4555 7.92798 25.0394 7.92798C22.6233 7.92798 20.369 9.74359 18.6909 13.052C17.0633 16.2596 16.1636 20.5263 16.1636 25.0452C16.1636 29.564 17.0633 33.8207 18.6909 37.0383C20.369 40.3367 22.6233 42.1624 25.0394 42.1624C27.4555 42.1624 29.7099 40.3468 31.388 37.0383C33.0156 33.8307 33.9153 29.564 33.9153 25.0452C33.9153 20.5263 33.0156 16.2697 31.388 13.052ZM25.0293 41.0327C22.9468 41.0327 20.9755 39.3986 19.4794 36.423C17.9529 33.3869 17.1037 29.3421 17.1037 25.0452C17.1037 20.7482 17.9428 16.7034 19.4794 13.6673C20.9755 10.6917 22.9468 9.05769 25.0293 9.05769C27.1118 9.05769 29.0831 10.6917 30.5793 13.6673C32.1058 16.7034 32.9549 20.7482 32.9549 25.0452C32.9549 29.3421 32.1159 33.3869 30.5793 36.423C29.0831 39.3986 27.1118 41.0327 25.0293 41.0327Z" fill="white"/>
<path d="M41.6186 24.4702H8.45039C8.13701 24.4702 7.88428 24.7628 7.88428 25.0754C7.88428 25.3881 8.13701 25.6807 8.45039 25.6807H41.6186C41.932 25.6807 42.1847 25.3881 42.1847 25.0754C42.1847 24.7628 41.932 24.4702 41.6186 24.4702Z" fill="white"/>
<path d="M25.6262 41.628V8.52326C25.6262 8.21057 25.333 7.9584 25.0196 7.9584C24.7062 7.9584 24.4131 8.21057 24.4131 8.52326V41.6179C24.4131 41.9306 24.7062 42.1827 25.0196 42.1827C25.333 42.1827 25.6262 41.9407 25.6262 41.628Z" fill="white"/>
</svg>
