<svg width="45" height="45" viewBox="0 0 45 45" fill="none" xmlns="http://www.w3.org/2000/svg">
<path d="M35.2548 3.97875L35.2915 3.95475L34.2993 3.34275C34.2408 3.30675 34.1793 3.27675 34.1208 3.24075C33.7953 3.04425 33.4645 2.856 33.1285 2.67525C32.9583 2.58375 32.7858 2.4975 32.6133 2.4105C32.3605 2.28225 32.1048 2.16 31.8468 2.0415C31.6945 1.97175 31.543 1.9005 31.39 1.8345C30.9888 1.66125 30.583 1.4985 30.1705 1.3485C30.0858 1.31775 29.9995 1.2915 29.914 1.2615C29.5533 1.1355 29.188 1.0185 28.8198 0.9105C28.702 0.876 28.5843 0.84225 28.4658 0.81C28.0578 0.6975 27.6453 0.59475 27.2283 0.5055C27.1885 0.49725 27.1503 0.48675 27.1105 0.4785C26.6493 0.38175 26.1828 0.30225 25.7118 0.23475C25.6083 0.21975 25.5033 0.2085 25.3998 0.195C25.0315 0.14775 24.661 0.10875 24.2875 0.0795C24.1615 0.06975 24.0363 0.0585 23.9103 0.051C23.443 0.0195 22.9735 0 22.4995 0C21.9873 0 21.481 0.02325 20.977 0.057C20.845 0.066 20.7138 0.07575 20.5818 0.087C20.1085 0.12675 19.6383 0.17775 19.1733 0.2475C19.1268 0.25425 19.0803 0.26025 19.0338 0.267C18.5658 0.33975 18.1038 0.43125 17.6463 0.5325C17.4948 0.5655 17.344 0.60075 17.1933 0.6375C16.7718 0.7395 16.3548 0.85125 15.943 0.9765C15.8125 1.01625 15.6835 1.05975 15.5545 1.10175C15.1855 1.22175 14.8203 1.3515 14.4603 1.49025C14.2953 1.55325 14.1303 1.61775 13.9668 1.68525C13.5528 1.8555 13.1433 2.034 12.742 2.22825C12.61 2.292 12.4803 2.36325 12.349 2.43C12.0355 2.589 11.7265 2.75475 11.422 2.928C11.2698 3.01425 11.1183 3.09975 10.9675 3.18975C10.5865 3.4185 10.2123 3.657 9.84626 3.90675C9.79601 3.94125 9.74276 3.96975 9.69326 4.005L9.28451 4.2885L9.28826 4.305C3.66476 8.39775 -0.000488281 15.027 -0.000488281 22.5C-0.000488281 34.9065 10.093 45 22.4995 45C34.906 45 44.9995 34.9065 44.9995 22.5C44.9995 14.8267 41.1355 8.0415 35.2548 3.97875ZM11.3163 4.7385C11.5585 4.5855 11.8038 4.43775 12.0513 4.29525C12.1885 4.21575 12.3243 4.134 12.4638 4.0575C12.8118 3.867 13.165 3.68925 13.522 3.51975C13.6765 3.44625 13.8325 3.378 13.9893 3.30825C14.251 3.192 14.5143 3.08175 14.7798 2.976C14.926 2.9175 15.0715 2.85675 15.22 2.802C15.5995 2.661 15.9835 2.532 16.3705 2.41425C16.5123 2.37075 16.657 2.3325 16.8003 2.292C17.101 2.20725 17.4033 2.1285 17.7085 2.05725C17.845 2.025 17.9815 1.99125 18.1188 1.962C18.538 1.87275 18.9603 1.79475 19.3855 1.731C19.4823 1.71675 19.5805 1.707 19.6773 1.6935C20.0358 1.6455 20.3965 1.6065 20.7588 1.5765C20.8848 1.566 21.0115 1.5555 21.1383 1.54725C21.5905 1.52025 22.0435 1.5 22.4995 1.5C22.8963 1.5 23.2923 1.5135 23.6868 1.536C23.8 1.542 23.9118 1.55325 24.0243 1.5615C24.3085 1.5825 24.5928 1.6065 24.8755 1.63875C25.0008 1.653 25.1253 1.67025 25.2498 1.68675C25.5235 1.72275 25.7958 1.76325 26.0673 1.8105C26.188 1.8315 26.308 1.8525 26.428 1.875C26.7108 1.929 26.992 1.98975 27.2718 2.055C27.3753 2.079 27.4795 2.1015 27.5823 2.127C27.9273 2.21325 28.27 2.30775 28.6098 2.41125C28.6443 2.42175 28.6795 2.43 28.714 2.4405C29.077 2.553 29.4355 2.6775 29.7918 2.80875C29.9343 2.862 30.0738 2.91975 30.2148 2.976C30.4218 3.05775 30.6273 3.141 30.832 3.2295C31.009 3.30675 31.1845 3.38625 31.3593 3.468C31.5168 3.5415 31.6728 3.61725 31.8288 3.6945C31.9428 3.75 32.0568 3.80925 32.17 3.8685C29.3035 5.0175 27.523 6.42525 25.5303 9.018C25.2475 9.38475 25.1043 9.834 25.117 10.2825C24.9453 9.8685 24.6933 9.5535 24.3573 9.333C23.6628 8.877 22.7538 8.90925 21.58 9.43275L21.3663 9.45675C19.8618 9.62475 19.033 9.71775 18.958 11.3542C18.9198 12.1823 19.3638 12.9998 20.089 13.4363C20.2728 13.5465 20.4655 13.6267 20.662 13.6755C20.683 13.7467 20.716 13.8195 20.7648 13.893L21.067 14.3107L21.5493 14.2305C21.9618 14.1608 22.3083 14.1458 22.543 14.1525C22.5078 14.4855 22.5663 14.826 22.7163 15.1298C22.9248 15.5513 23.2833 15.8587 23.7258 15.9952C24.1488 16.1257 24.1855 16.2525 24.2365 16.4272C24.4773 17.256 25.0248 17.8687 25.7388 18.1065C26.4213 18.3353 27.1795 18.1875 27.8223 17.7052C28.2078 17.4135 28.426 17.4742 29.2683 17.8815C29.818 18.147 30.5028 18.4785 31.3893 18.5925C31.5288 18.6098 31.612 18.6518 31.6428 18.684C32.2525 19.3245 32.7205 20.121 33.1728 20.8913C33.8658 22.071 34.5205 23.1863 35.647 23.7705C36.5283 24.2288 35.5413 26.8155 35.068 28.0583C34.9728 28.3088 34.8835 28.542 34.8093 28.7505C33.6663 29.631 32.968 30.6308 32.2923 31.5983C31.687 32.4645 31.0615 33.3607 30.0918 34.1947C28.627 35.4555 27.388 36.2108 25.9495 36.7223C25.7133 36.8055 25.5595 36.6652 25.504 36.6C25.4515 36.5385 25.342 36.3713 25.459 36.162C26.9388 33.513 28.6503 29.7773 26.4348 27.9435C24.2628 26.1465 23.4498 23.5373 24.3618 21.2977C24.7495 20.3468 24.3168 19.2803 23.359 18.7792C23.2773 18.6795 23.2188 18.2437 23.1805 17.955C23.0958 17.3213 22.9908 16.533 22.522 15.8453C22.327 15.5603 21.9775 15.303 21.7368 15.186C20.821 14.7375 19.942 14.6093 19.0923 14.4862C18.4158 14.3872 17.776 14.2942 17.1235 14.0445C14.6388 13.0912 12.8703 9.06 11.5788 6.1155C11.3943 5.694 11.2165 5.28975 11.0455 4.911C11.1348 4.854 11.2255 4.79625 11.3163 4.7385ZM22.4995 43.5C10.9203 43.5 1.49951 34.0793 1.49951 22.5C1.49951 15.6923 4.75826 9.633 9.79526 5.79375C9.92801 6.0915 10.0638 6.399 10.2048 6.72C11.68 10.0837 13.516 14.2695 16.5858 15.447C17.3935 15.7568 18.1473 15.867 18.8755 15.972C19.645 16.0837 20.3718 16.1895 21.0783 16.536C21.1353 16.5637 21.253 16.6553 21.283 16.6927C21.5508 17.0858 21.6235 17.6287 21.6933 18.1537C21.79 18.8783 21.8995 19.6995 22.633 20.0872C22.8715 20.214 23.08 20.469 22.9728 20.7323C21.808 23.5912 22.7913 26.8755 25.4785 29.1C26.167 29.67 26.4955 31.2315 24.1495 35.4315C23.7633 36.123 23.8458 36.9622 24.3588 37.5697C24.7315 38.01 25.2603 38.2485 25.8085 38.2485C26.023 38.2485 26.2405 38.2118 26.4528 38.1367C28.0765 37.5592 29.4573 36.7207 31.0705 35.3325C32.1843 34.3755 32.8645 33.4012 33.523 32.4585C34.1875 31.5068 34.816 30.6075 35.8458 29.8493C35.9958 29.7397 36.1068 29.5905 36.166 29.418C36.247 29.181 36.3535 28.902 36.4705 28.5945C37.2415 26.5725 38.407 23.5163 36.34 22.4415C35.5968 22.0553 35.074 21.165 34.4673 20.1337C33.9948 19.329 33.4585 18.417 32.7303 17.6505C32.4483 17.3542 32.0508 17.166 31.5828 17.1052C30.9378 17.0227 30.4225 16.773 29.923 16.5315C29.1003 16.1332 28.075 15.6382 26.9223 16.506C26.7483 16.6372 26.485 16.773 26.215 16.6845C25.975 16.6042 25.7793 16.3582 25.6788 16.0103C25.5333 15.507 25.2295 14.889 24.1698 14.562C24.1233 14.547 24.0873 14.5147 24.0625 14.4637C24.0295 14.397 24.0258 14.3145 24.0603 14.22C24.202 13.8337 24.1435 13.4437 23.8998 13.149C23.632 12.825 23.1543 12.6585 22.474 12.648C22.4478 12.5303 22.3878 12.411 22.2768 12.2948L21.8215 11.8785L21.31 12.18C21.1773 12.2587 21.0273 12.249 20.8645 12.15C20.6125 11.9993 20.4453 11.6993 20.458 11.4218C20.4655 11.25 20.4768 11.1525 20.4865 11.0963C20.6703 11.0422 21.109 10.9928 21.535 10.9455L21.9903 10.8937L22.1005 10.8427C22.7703 10.5315 23.3065 10.437 23.5345 10.5848C23.6268 10.6455 23.9238 10.9365 23.89 12.1417L23.8713 12.8077L24.5298 12.9053C25.3855 13.0335 26.02 12.8662 26.4153 12.4125C26.824 11.943 26.8983 11.2462 26.6335 10.3417C26.5953 10.2105 26.629 10.0492 26.7198 9.9315C28.795 7.2315 30.5365 5.98875 33.8508 4.84425C39.649 8.5875 43.4995 15.1005 43.4995 22.5C43.4995 34.0793 34.0788 43.5 22.4995 43.5Z" fill="#747474"/>
</svg>
