<svg width="30" height="31" viewBox="0 0 30 31" fill="none" xmlns="http://www.w3.org/2000/svg">
<g clip-path="url(#clip0)">
<path d="M28.8255 8.47613C27.8116 7.44422 26.1618 7.44428 25.1475 8.47637C24.193 9.4487 22.5396 8.77272 22.5396 7.41016V4.14166C22.5396 3.43475 22.2691 2.77017 21.7779 2.27034L19.3262 -0.224863C18.8351 -0.724762 18.182 -1 17.4874 -1H2.60245C1.16854 -1 0.00195312 0.187229 0.00195312 1.64652V26.465C0.00195312 27.9243 1.16854 29.1115 2.60245 29.1115H19.9391C21.373 29.1115 22.5396 27.9243 22.5396 26.465V20.6656C22.5396 19.3554 23.0539 18.0976 23.9717 17.1627L28.8254 12.2189C29.8418 11.1846 29.842 9.51051 28.8255 8.47613ZM17.3387 1.59627C17.3387 1.13681 17.7783 0.695015 18.1003 1.02271L20.5521 3.51791C20.878 3.84968 20.429 4.29304 19.9639 4.29304H19.0723C18.1149 4.29304 17.3387 3.51685 17.3387 2.55938V1.59627ZM20.806 26.465C20.806 26.9514 20.4171 27.3472 19.9391 27.3472H2.60245C2.12448 27.3472 1.73562 26.9514 1.73562 26.465V1.64652C1.73562 1.16009 2.12448 0.764347 2.60245 0.764347H11.1941C13.6301 0.764347 15.605 2.73916 15.605 5.17522C15.605 5.66241 15.9931 6.05739 16.4718 6.05739C18.8655 6.05739 20.806 7.99786 20.806 10.3916V10.9133C20.806 12.1857 20.3065 13.4072 19.4151 14.3152C19.2049 14.5293 18.9987 14.7394 18.8195 14.9218C18.441 15.3074 18.0553 15.7 17.6766 16.0854L17.0231 16.7505C16.928 16.8473 16.8563 16.9654 16.8137 17.0953L15.5878 20.8381C15.4839 21.1551 15.565 21.5046 15.7972 21.7408C16.0297 21.9774 16.3733 22.0595 16.6843 21.954L20.362 20.7064C20.4896 20.6631 20.6057 20.5901 20.7008 20.4933C20.7393 20.4541 20.806 20.4814 20.806 20.5363V26.465ZM18.4813 17.7617C18.6904 17.5488 19.0334 17.5489 19.2426 17.7617L19.7108 18.2382C19.9201 18.4512 19.9201 18.7926 19.7108 19.0056C19.6508 19.0666 19.5773 19.1128 19.4962 19.1403L19.4241 19.1648C18.747 19.3944 18.0983 18.7525 18.3209 18.0731L18.3548 17.9696C18.3804 17.8915 18.4237 17.8203 18.4813 17.7617ZM21.9371 16.7388C21.5945 17.0878 21.0323 17.0879 20.6895 16.739C20.3553 16.399 20.3546 15.8545 20.6886 15.5143C21.5038 14.684 22.8143 13.3492 23.6318 12.5165C23.9744 12.1675 24.5356 12.1684 24.8784 12.5173C25.2126 12.8573 25.2127 13.4024 24.8787 13.7427L21.9371 16.7388ZM27.5993 10.9716L27.3294 11.2465C26.9868 11.5955 26.4246 11.5956 26.0818 11.2467C25.7476 10.9067 25.7475 10.3616 26.0815 10.0213L26.3737 9.7237C26.7119 9.37971 27.2617 9.37977 27.5997 9.7237C27.9376 10.0677 27.9394 10.6255 27.5993 10.9716Z" fill="#454545"/>
<path d="M16.4708 8.82178H4.33509C3.85637 8.82178 3.46826 9.21676 3.46826 9.70395C3.46826 10.1911 3.85637 10.5861 4.33509 10.5861H16.4708C16.9495 10.5861 17.3376 10.1911 17.3376 9.70395C17.3376 9.21676 16.9495 8.82178 16.4708 8.82178Z" fill="#454545"/>
<path d="M13.0034 12.3505H4.33509C3.85637 12.3505 3.46826 12.7454 3.46826 13.2326C3.46826 13.7198 3.85637 14.1148 4.33509 14.1148H13.0034C13.4822 14.1148 13.8703 13.7198 13.8703 13.2326C13.8703 12.7454 13.4822 12.3505 13.0034 12.3505Z" fill="#454545"/>
<path d="M13.0034 15.8792H4.33509C3.85637 15.8792 3.46826 16.2741 3.46826 16.7613C3.46826 17.2485 3.85637 17.6435 4.33509 17.6435H13.0034C13.4822 17.6435 13.8703 17.2485 13.8703 16.7613C13.8703 16.2741 13.4822 15.8792 13.0034 15.8792Z" fill="#454545"/>
<path d="M13.0034 19.4078H4.33509C3.85637 19.4078 3.46826 19.8028 3.46826 20.29C3.46826 20.7772 3.85637 21.1722 4.33509 21.1722H13.0034C13.4822 21.1722 13.8703 20.7772 13.8703 20.29C13.8703 19.8028 13.4822 19.4078 13.0034 19.4078Z" fill="#454545"/>
<path d="M16.4707 24.8185H11.2697C10.7909 24.8185 10.4028 25.2135 10.4028 25.7007C10.4028 26.1878 10.7909 26.5828 11.2697 26.5828H16.4707C16.9494 26.5828 17.3375 26.1878 17.3375 25.7007C17.3375 25.2135 16.9494 24.8185 16.4707 24.8185Z" fill="#454545"/>
</g>
<defs>
<clipPath id="clip0">
<rect width="29.5879" height="30.1115" fill="white"/>
</clipPath>
</defs>
</svg>
