<svg width="31" height="31" viewBox="0 0 31 31" fill="none" xmlns="http://www.w3.org/2000/svg">
<g clip-path="url(#clip0)">
<path d="M19.3252 10.9093C18.9425 10.9093 18.6323 11.225 18.6323 11.6145V24.9425C18.6323 25.3318 18.9425 25.6477 19.3252 25.6477C19.708 25.6477 20.0182 25.3318 20.0182 24.9425V11.6145C20.0182 11.225 19.708 10.9093 19.3252 10.9093Z" fill="#454545"/>
<path d="M11.149 10.9093C10.7662 10.9093 10.4561 11.225 10.4561 11.6145V24.9425C10.4561 25.3318 10.7662 25.6477 11.149 25.6477C11.5317 25.6477 11.8419 25.3318 11.8419 24.9425V11.6145C11.8419 11.225 11.5317 10.9093 11.149 10.9093Z" fill="#454545"/>
<path d="M3.2441 6.01223C2.95704 8.25317 5.18969 10.5337 5.18969 12.7929V26.3387C5.18969 27.3656 5.5597 28.33 6.20607 29.0219C6.84946 29.7158 7.74485 30.1097 8.68192 30.1114H21.7922C22.7296 30.1097 23.625 29.7158 24.2681 29.0219C24.9145 28.33 25.2845 27.3656 25.2845 26.3387V12.7929C25.2845 10.5337 27.5171 8.25317 27.2301 6.01223C27.0579 4.67072 25.9349 3.66721 24.6053 3.66694H21.9391C21.4523 3.66694 21.0576 3.27228 21.0576 2.78545C21.0617 2.04418 20.7737 1.33239 20.2581 0.80873C19.7424 0.28535 19.0419 -0.0060896 18.3135 -2.94147e-05H12.1606C11.4322 -0.0060896 10.7317 0.28535 10.2161 0.80873C9.70046 1.33239 9.41247 2.04418 9.41653 2.78545C9.41653 3.27228 9.02187 3.66694 8.53504 3.66694H5.86881C4.53927 3.66721 3.41624 4.67072 3.2441 6.01223ZM21.7922 28.701H8.68192C7.49718 28.701 6.57554 27.6653 6.57554 26.3387V14.0263C6.57554 11.2649 8.81412 9.02635 11.5755 9.02635H18.8986C21.66 9.02635 23.8986 11.2649 23.8986 14.0263V26.3387C23.8986 27.6653 22.977 28.701 21.7922 28.701ZM10.8024 2.78545C10.7978 2.41826 10.9396 2.06484 11.1957 1.80563C11.4514 1.54642 11.7995 1.40401 12.1606 1.41034H18.3135C18.6746 1.40401 19.0227 1.54642 19.2785 1.80563C19.5346 2.06457 19.6764 2.41826 19.6718 2.78545C19.6718 3.27228 19.2771 3.66694 18.7903 3.66694H11.6839C11.197 3.66694 10.8024 3.27228 10.8024 2.78545ZM5.86881 5.07731H24.6053C25.2942 5.07731 25.8526 5.64559 25.8526 6.34664C25.8526 7.0477 25.2942 7.61598 24.6053 7.61598H5.86881C5.17995 7.61598 4.62155 7.0477 4.62155 6.34664C4.62155 5.64559 5.17995 5.07731 5.86881 5.07731Z" fill="#454545"/>
<path d="M15.2369 10.9093C14.8541 10.9093 14.5439 11.225 14.5439 11.6145V24.9425C14.5439 25.3318 14.8541 25.6477 15.2369 25.6477C15.6196 25.6477 15.9298 25.3318 15.9298 24.9425V11.6145C15.9298 11.225 15.6196 10.9093 15.2369 10.9093Z" fill="#454545"/>
</g>
<defs>
<clipPath id="clip0">
<rect width="29.5879" height="30.1115" fill="white" transform="translate(0.450195)"/>
</clipPath>
</defs>
</svg>
