<svg width="28" height="26" viewBox="0 0 28 26" fill="none" xmlns="http://www.w3.org/2000/svg">
<g id="Favor">
<path id="icon/action/favorite_border_24px" fill-rule="evenodd" clip-rule="evenodd" d="M13.6028 6.10613C15.5912 3.96497 19.2743 3.09187 22.2569 4.96279C23.8386 5.96062 24.8328 7.64445 24.9006 9.41143C25.0475 13.4443 21.1723 16.6768 15.241 21.6244L15.1167 21.7283C14.2581 22.4559 12.9362 22.4559 12.0776 21.7387L11.9646 21.6452L11.8964 21.5881C6.00344 16.6624 2.14738 13.4392 2.30495 9.42182C2.37273 7.64445 3.36694 5.96062 4.94864 4.96279C7.93127 3.08148 11.6144 3.96497 13.6028 6.10613ZM13.6028 20.2004L13.7158 20.0965C19.0935 15.6167 22.6411 12.6544 22.6411 9.65049C22.6411 7.57169 20.9464 6.01259 18.6868 6.01259C16.9469 6.01259 15.2523 7.0416 14.6648 8.46558H12.5521C11.9533 7.0416 10.2586 6.01259 8.51876 6.01259C6.25919 6.01259 4.56452 7.57169 4.56452 9.65049C4.56452 12.6544 8.11204 15.6167 13.4898 20.0965L13.6028 20.2004Z" fill="#A6A6A6"/>
</g>
</svg>
