<svg width="28" height="26" viewBox="0 0 28 26" fill="none" xmlns="http://www.w3.org/2000/svg">
<path fill-rule="evenodd" clip-rule="evenodd" d="M13.6033 6.10607C15.5917 3.96491 19.2748 3.09181 22.2574 4.96273C23.8391 5.96056 24.8333 7.64438 24.9011 9.41137C25.048 13.4442 21.1728 16.6768 15.2415 21.6243L15.1172 21.7283C14.2585 22.4558 12.9367 22.4558 12.0781 21.7387L11.9651 21.6451L11.8968 21.5881C6.00393 16.6623 2.14787 13.4391 2.30544 9.42176C2.37322 7.64438 3.36743 5.96056 4.94913 4.96273C7.93176 3.08142 11.6149 3.96491 13.6033 6.10607ZM13.6033 20.2003L13.7163 20.0964C19.094 15.6166 22.6415 12.6543 22.6415 9.65043C22.6415 7.57163 20.9469 6.01253 18.6873 6.01253C16.9474 6.01253 15.2528 7.04154 14.6653 8.46552H12.5526C11.9538 7.04154 10.2591 6.01253 8.51925 6.01253C6.25968 6.01253 4.56501 7.57163 4.56501 9.65043C4.56501 12.6543 8.11253 15.6166 13.4903 20.0964L13.6033 20.2003Z" fill="#FE8A80"/>
</svg>
