<svg width="25" height="20" viewBox="0 0 25 20" fill="none" xmlns="http://www.w3.org/2000/svg">
<path d="M22.7021 3.71978H20.7065H17.8348H17.0203V1.5422C17.0203 0.696938 16.3262 0 15.4781 0H9.52477C8.67951 0 7.98257 0.694119 7.98257 1.5422V3.71978H7.16529H4.29359H2.29792C1.02721 3.71978 0 4.74698 0 6.0177V17.6836C0 18.9544 1.02721 19.9816 2.29792 19.9816H4.29355H7.16525H17.8348H20.7064H22.7021C23.9728 19.9816 25 18.9544 25 17.6836V5.98412C24.9692 4.74698 23.942 3.71978 22.7021 3.71978ZM3.75058 18.8648H2.29792C1.66254 18.8648 1.11957 18.3498 1.11957 17.6864V5.9869C1.11957 5.35152 1.63456 4.80855 2.29792 4.80855H3.74776V18.8648H3.75058ZM6.59147 18.8648H4.83935V4.83657H6.59147V18.8648ZM9.07134 1.5422C9.07134 1.30147 9.25328 1.11957 9.49397 1.11957H15.4501C15.6908 1.11957 15.8727 1.30151 15.8727 1.5422V3.71978H9.07134V1.5422ZM17.261 18.8648H7.71104V4.83657H8.52832H16.4493H17.2666V18.8648H17.261V18.8648ZM20.1327 18.8648H18.3806V4.83657H20.1327V18.8648ZM23.8525 17.6836C23.8525 18.319 23.3375 18.862 22.6741 18.862H21.2523V4.83657H22.7021C23.3375 4.83657 23.8805 5.35156 23.8805 6.01492V17.6836H23.8525Z" fill="#FE8A80"/>
</svg>
