<svg width="20" height="20" viewBox="0 0 20 20" fill="none" xmlns="http://www.w3.org/2000/svg">
<path d="M19.4191 1.75602C19.7397 1.43605 19.7397 0.916592 19.4191 0.596659C19.0994 0.277661 18.5818 0.277699 18.2621 0.596743L14.4206 4.43095C11.9778 6.86908 8.0222 6.86908 5.57941 4.43096L1.73786 0.596752C1.4182 0.277704 0.90059 0.27767 0.580889 0.596676C0.260265 0.916605 0.26023 1.43604 0.580812 1.75601L4.42079 5.58868C6.86038 8.02363 6.86031 11.9764 4.42062 14.4113L0.580855 18.2434C0.260254 18.5634 0.260283 19.0828 0.580919 19.4028C0.900608 19.7218 1.41819 19.7217 1.73784 19.4027L5.57946 15.5687C8.02228 13.1307 11.9777 13.1307 14.4205 15.5687L18.2621 19.4027C18.5818 19.7217 19.0994 19.7218 19.419 19.4028C19.7397 19.0829 19.7397 18.5634 19.4191 18.2434L15.5791 14.4113C13.1393 11.9765 13.1392 8.02356 15.5789 5.58864L19.4191 1.75602Z" fill="#FE8A80"/>
</svg>
