<svg width="25" height="23" viewBox="0 0 25 23" fill="none" xmlns="http://www.w3.org/2000/svg">
<path d="M24.9156 5.90591C24.5761 3.83459 23.4226 2.17185 21.4518 1.01836C20.3329 0.339426 19.0756 0 17.8184 0C16.1902 0 14.6627 0.578319 13.506 1.66273C13.132 2.0022 12.8271 2.34167 12.4876 2.71569C11.5038 1.493 10.4855 0.748093 9.33195 0.374067C7.26063 -0.304867 5.22387 -0.0345595 3.35684 1.15357C1.11893 2.57733 0 4.57949 0 7.12546C0 8.61846 0.5092 10.0454 1.52756 11.4692C2.61508 12.9968 3.97291 14.5589 5.73621 16.3914C6.95891 17.6141 8.18156 18.8367 9.40111 20.0248L10.5892 21.1784C10.6898 21.2789 10.7935 21.3827 10.8941 21.4832L11.0292 21.6184C11.2681 21.8227 11.8088 22.1622 12.4876 22.1622C13.066 22.1622 13.6066 21.9233 14.0844 21.4832C16.1211 19.547 18.3276 17.4443 20.3989 15.2033C21.4864 14.0497 22.706 12.6573 23.7243 11.1298C24.8118 9.47023 25.1859 7.70378 24.9156 5.90591ZM22.6746 10.4194C21.7253 11.8778 20.5687 13.1351 19.4843 14.3232C17.4129 16.5297 15.2756 18.6356 13.2388 20.534C12.9685 20.7729 12.7296 20.8735 12.4908 20.8735C12.1859 20.8735 11.947 20.7037 11.881 20.6346L11.7804 20.534C11.6799 20.4334 11.5761 20.3297 11.4756 20.2291L10.2875 19.1102C9.09939 17.9221 7.84214 16.734 6.65404 15.5113C4.88759 13.7134 3.63348 12.2519 2.54596 10.7589C1.69733 9.5362 1.25729 8.34811 1.25729 7.12546C1.25729 5.01958 2.14052 3.3914 4.00755 2.20331C4.99135 1.55897 6.04431 1.25407 7.09723 1.25407C7.707 1.25407 8.31992 1.35464 8.92966 1.55893C9.91346 1.8984 10.7621 2.54273 11.6453 3.63025C11.7145 3.69941 12.0193 4.03888 12.5285 4.03888C12.7328 4.03888 13.0723 3.96972 13.3772 3.63025L13.4117 3.56109C13.7512 3.18707 14.0561 2.8476 14.361 2.54273C15.3102 1.65951 16.4983 1.21947 17.8247 1.21947C18.8777 1.21947 19.896 1.52433 20.8107 2.06809C22.4388 3.05189 23.3912 4.34371 23.6615 6.07245C23.8972 7.6032 23.5923 9.02704 22.6746 10.4194ZM8.72218 4.78379C8.587 5.08865 8.21298 5.22383 7.87355 5.08865C7.56868 4.95348 7.26377 4.88436 6.92431 4.88436C5.66706 4.88436 4.64869 5.90272 4.64869 7.15997C4.64869 7.60001 4.78387 8.0432 5.02272 8.41723C5.22701 8.68753 5.1233 9.09616 4.85299 9.30045C4.75241 9.36961 4.61409 9.40103 4.51352 9.40103C4.30923 9.40103 4.10489 9.30045 4.00432 9.13072C3.63029 8.5524 3.426 7.87347 3.426 7.16312C3.426 5.22693 5.02272 3.6334 6.95572 3.6334C7.46492 3.6334 7.97408 3.73397 8.44872 3.97287C8.72218 4.10489 8.85735 4.47892 8.72218 4.78379Z" fill="#FE8A80"/>
</svg>
