<svg width="25" height="25" viewBox="0 0 25 25" fill="none" xmlns="http://www.w3.org/2000/svg">
<path d="M12.5 0C5.59561 0 0 5.59561 0 12.5C0 19.4044 5.59561 25 12.5 25C19.4044 25 25 19.4044 25 12.5C25 5.59561 19.3711 0 12.5 0ZM12.5 23.7882C6.28331 23.7882 1.21182 18.7167 1.21182 12.5C1.21182 6.28331 6.25002 1.21182 12.5 1.21182C18.75 1.21182 23.7882 6.28331 23.7882 12.5C23.7882 18.7167 18.7167 23.7882 12.5 23.7882ZM13.0241 18.5531C13.0241 18.9136 12.7302 19.2074 12.3697 19.2074C12.0092 19.2074 11.7154 18.9136 11.7154 18.5531C11.7154 18.1925 12.0093 17.8987 12.3697 17.8987C12.7272 17.8987 13.0241 18.1926 13.0241 18.5531ZM15.7386 9.65222C15.7386 10.7974 15.0842 11.8456 13.8724 12.5636C12.9878 13.0878 13.0211 13.7088 13.0211 13.7421C13.0211 13.7421 13.0211 13.7755 13.0211 13.8088V15.3145C13.0211 15.6417 12.7605 15.9022 12.4333 15.9022C12.1061 15.9022 11.8123 15.6417 11.8123 15.3145V13.8421C11.779 13.318 12.0425 12.3031 13.218 11.5851C13.8058 11.2245 14.4935 10.6035 14.4935 9.68858C14.4935 8.57674 13.5785 7.65876 12.4636 7.65876C11.3488 7.65876 10.4338 8.57368 10.4338 9.68858C10.4338 10.0158 10.1733 10.2763 9.84607 10.2763C9.51887 10.2763 9.25832 10.0158 9.25832 9.68858C9.25832 7.889 10.6974 6.44996 12.4969 6.44996C14.2965 6.44996 15.7386 7.85265 15.7386 9.65222Z" fill="#FE8A80"/>
</svg>
