<svg width="25" height="25" viewBox="0 0 25 25" fill="none" xmlns="http://www.w3.org/2000/svg">
<path d="M25 12.5015C25 5.61295 19.3871 0 12.4985 0C5.61001 0 0 5.61295 0 12.5015C0 16.2956 1.72141 19.7089 4.39943 22.0031C4.4319 22.0355 4.46438 22.068 4.52639 22.0975C6.69363 23.9164 9.46912 25 12.531 25C15.5279 25 18.3034 23.9164 20.4707 22.1625C20.5976 22.13 20.6951 22.0355 20.7571 21.9381C23.3436 19.6114 25 16.2632 25 12.5015ZM1.14857 12.5015C1.14857 6.25074 6.25074 1.14857 12.5015 1.14857C18.7522 1.14857 23.8544 6.25074 23.8544 12.5015C23.8544 15.5634 22.6438 18.3359 20.6655 20.3791C20.3467 18.8792 19.39 16.3281 16.4551 14.6717C17.1253 13.842 17.5062 12.7584 17.5062 11.6098C17.5062 8.86679 15.274 6.6346 12.531 6.6346C9.78799 6.6346 7.5558 8.86679 7.5558 11.6098C7.5558 12.7584 7.96916 13.8095 8.60695 14.6717C5.64547 16.3281 4.68881 18.8792 4.40237 20.3791C2.39163 18.3684 1.14857 15.5634 1.14857 12.5015ZM8.67484 11.6393C8.67484 9.53407 10.3962 7.81266 12.5015 7.81266C14.6067 7.81266 16.3281 9.53407 16.3281 11.6393C16.3281 13.7445 14.6067 15.4659 12.5015 15.4659C10.3962 15.4659 8.67484 13.7445 8.67484 11.6393ZM5.42104 21.3653C5.48599 20.4411 5.99383 17.3143 9.43958 15.5604C10.3018 16.2307 11.3529 16.6116 12.5015 16.6116C13.65 16.6116 14.7337 16.1982 15.5958 15.5279C19.0091 17.2818 19.5494 20.3437 19.6469 21.3328C17.7011 22.8948 15.215 23.8514 12.5369 23.8514C9.82345 23.8544 7.36683 22.9302 5.42104 21.3653Z" fill="#FE8A80"/>
</svg>
