<svg width="25" height="25" viewBox="0 0 25 25" fill="none" xmlns="http://www.w3.org/2000/svg">
<path d="M12.4849 0C5.58883 0 0 5.58883 0 12.4849C0 19.3809 5.58883 25 12.4849 25C19.3809 25 24.9697 19.4112 24.9697 12.5151C24.9697 5.6191 19.3809 0 12.4849 0ZM12.4849 23.7896C6.2757 23.7896 1.21036 18.7243 1.21036 12.5151C1.21036 6.30597 6.2757 1.20734 12.4849 1.20734C18.694 1.20734 23.7594 6.27268 23.7594 12.4818C23.7594 18.691 18.694 23.7896 12.4849 23.7896ZM18.3006 12.7754C18.3006 12.7754 18.3006 12.8087 18.2674 12.8087C18.2341 12.8419 18.2341 12.8752 18.2008 12.9055L13.6922 17.4141C13.5621 17.5442 13.432 17.5775 13.2686 17.5775C13.1052 17.5775 12.9751 17.5109 12.845 17.4141C12.615 17.1841 12.615 16.7938 12.845 16.5638L16.3096 13.0991H6.73261C6.4058 13.0991 6.14556 12.8389 6.14556 12.5121C6.14556 12.1853 6.4058 11.925 6.73261 11.925H16.3066L12.8782 8.49668C12.6482 8.26672 12.6482 7.87639 12.8782 7.64638C13.1082 7.41642 13.4985 7.41642 13.7285 7.64638L18.1705 12.0914C18.2038 12.1247 18.2371 12.158 18.2371 12.1883L18.2704 12.2216C18.2704 12.2549 18.3037 12.2549 18.3037 12.2882C18.3037 12.3214 18.3037 12.3214 18.337 12.3547C18.337 12.388 18.337 12.388 18.337 12.4213C18.337 12.4879 18.337 12.5847 18.337 12.6513C18.337 12.6846 18.337 12.6846 18.337 12.7178C18.3339 12.7451 18.3339 12.7451 18.3006 12.7754C18.3006 12.7451 18.3006 12.7754 18.3006 12.7754Z" fill="#FE8A80"/>
</svg>
